<mxfile host="app.diagrams.net" modified="2021-02-07T16:16:21.530Z" agent="5.0 (Windows NT 10.0; Win64; x64) AppleWebKit/537.36 (KHTML, like Gecko) Chrome/87.0.4280.88  Safari/537.36" etag="284sM78R-HbGFbqtUmip" version="14.2.9" type="github">
  <diagram id="r4k9YjdjaylWLoNKeNUF" name="Page-1">
    <mxGraphModel dx="1718" dy="484" grid="1" gridSize="10" guides="1" tooltips="1" connect="1" arrows="1" fold="1" page="1" pageScale="1" pageWidth="850" pageHeight="1100" math="0" shadow="0">
      <root>
        <mxCell id="0" />
        <mxCell id="1" parent="0" />
        <mxCell id="5IULGxTD0l-tf5MQh9gl-8" value="" style="ellipse;whiteSpace=wrap;html=1;dashed=1;strokeWidth=2;" vertex="1" parent="1">
          <mxGeometry x="-16" y="4" width="463" height="410" as="geometry" />
        </mxCell>
        <mxCell id="5IULGxTD0l-tf5MQh9gl-2" value="Contract&amp;nbsp;" style="rounded=1;whiteSpace=wrap;html=1;" vertex="1" parent="1">
          <mxGeometry x="153" y="212" width="120" height="30" as="geometry" />
        </mxCell>
        <mxCell id="5IULGxTD0l-tf5MQh9gl-3" value="Customer&amp;nbsp;" style="rounded=1;whiteSpace=wrap;html=1;" vertex="1" parent="1">
          <mxGeometry x="273" y="263" width="120" height="30" as="geometry" />
        </mxCell>
        <mxCell id="5IULGxTD0l-tf5MQh9gl-4" value="Quote" style="rounded=1;whiteSpace=wrap;html=1;" vertex="1" parent="1">
          <mxGeometry x="33" y="280" width="120" height="30" as="geometry" />
        </mxCell>
        <mxCell id="5IULGxTD0l-tf5MQh9gl-5" value="Product" style="rounded=1;whiteSpace=wrap;html=1;" vertex="1" parent="1">
          <mxGeometry x="275.5" y="153" width="120" height="30" as="geometry" />
        </mxCell>
        <mxCell id="5IULGxTD0l-tf5MQh9gl-6" value="Currency" style="rounded=1;whiteSpace=wrap;html=1;" vertex="1" parent="1">
          <mxGeometry x="33" y="156" width="120" height="30" as="geometry" />
        </mxCell>
        <mxCell id="5IULGxTD0l-tf5MQh9gl-7" value="ContractTerm" style="rounded=1;whiteSpace=wrap;html=1;" vertex="1" parent="1">
          <mxGeometry x="153" y="343" width="120" height="30" as="geometry" />
        </mxCell>
        <mxCell id="5IULGxTD0l-tf5MQh9gl-9" value="ContractStatus" style="rounded=1;whiteSpace=wrap;html=1;" vertex="1" parent="1">
          <mxGeometry x="153" y="102" width="120" height="30" as="geometry" />
        </mxCell>
        <mxCell id="5IULGxTD0l-tf5MQh9gl-11" value="Contract Bounded Context" style="text;html=1;strokeColor=none;fillColor=none;align=center;verticalAlign=middle;whiteSpace=wrap;rounded=0;dashed=1;fontSize=18;" vertex="1" parent="1">
          <mxGeometry x="128.25" y="28" width="169.5" height="30" as="geometry" />
        </mxCell>
        <mxCell id="5IULGxTD0l-tf5MQh9gl-12" value="" style="endArrow=classic;html=1;fontSize=18;entryX=0.45;entryY=1;entryDx=0;entryDy=0;entryPerimeter=0;" edge="1" parent="1">
          <mxGeometry width="50" height="50" relative="1" as="geometry">
            <mxPoint x="215" y="210" as="sourcePoint" />
            <mxPoint x="215" y="132" as="targetPoint" />
          </mxGeometry>
        </mxCell>
        <mxCell id="5IULGxTD0l-tf5MQh9gl-13" value="" style="endArrow=classic;html=1;fontSize=18;exitX=0.5;exitY=1;exitDx=0;exitDy=0;" edge="1" parent="1" source="5IULGxTD0l-tf5MQh9gl-2" target="5IULGxTD0l-tf5MQh9gl-7">
          <mxGeometry width="50" height="50" relative="1" as="geometry">
            <mxPoint x="224.03999999999996" y="212.01" as="sourcePoint" />
            <mxPoint x="225" y="142" as="targetPoint" />
          </mxGeometry>
        </mxCell>
        <mxCell id="5IULGxTD0l-tf5MQh9gl-14" value="" style="endArrow=classic;html=1;fontSize=18;entryX=0.5;entryY=1;entryDx=0;entryDy=0;exitX=0;exitY=0.5;exitDx=0;exitDy=0;" edge="1" parent="1" source="5IULGxTD0l-tf5MQh9gl-2" target="5IULGxTD0l-tf5MQh9gl-6">
          <mxGeometry width="50" height="50" relative="1" as="geometry">
            <mxPoint x="400" y="270" as="sourcePoint" />
            <mxPoint x="450" y="220" as="targetPoint" />
            <Array as="points">
              <mxPoint x="93" y="227" />
            </Array>
          </mxGeometry>
        </mxCell>
        <mxCell id="5IULGxTD0l-tf5MQh9gl-15" value="" style="endArrow=classic;html=1;fontSize=18;entryX=0.5;entryY=0;entryDx=0;entryDy=0;exitX=1;exitY=0.5;exitDx=0;exitDy=0;" edge="1" parent="1" source="5IULGxTD0l-tf5MQh9gl-2" target="5IULGxTD0l-tf5MQh9gl-3">
          <mxGeometry width="50" height="50" relative="1" as="geometry">
            <mxPoint x="163" y="237" as="sourcePoint" />
            <mxPoint x="103" y="196" as="targetPoint" />
            <Array as="points">
              <mxPoint x="333" y="227" />
            </Array>
          </mxGeometry>
        </mxCell>
        <mxCell id="5IULGxTD0l-tf5MQh9gl-17" value="" style="endArrow=classic;html=1;fontSize=18;exitX=0;exitY=0.5;exitDx=0;exitDy=0;entryX=0.5;entryY=1;entryDx=0;entryDy=0;" edge="1" parent="1" source="5IULGxTD0l-tf5MQh9gl-7" target="5IULGxTD0l-tf5MQh9gl-4">
          <mxGeometry width="50" height="50" relative="1" as="geometry">
            <mxPoint x="50" y="424" as="sourcePoint" />
            <mxPoint x="100" y="374" as="targetPoint" />
            <Array as="points">
              <mxPoint x="93" y="358" />
            </Array>
          </mxGeometry>
        </mxCell>
        <mxCell id="5IULGxTD0l-tf5MQh9gl-19" value="OnboardCustomer" style="html=1;outlineConnect=0;whiteSpace=wrap;fillColor=#99ffff;shape=mxgraph.archimate3.event;dashed=1;strokeWidth=2;fontSize=10;" vertex="1" parent="1">
          <mxGeometry x="153" y="70" width="120" height="20" as="geometry" />
        </mxCell>
        <mxCell id="5IULGxTD0l-tf5MQh9gl-20" value="CancelContract" style="html=1;outlineConnect=0;whiteSpace=wrap;fillColor=#99ffff;shape=mxgraph.archimate3.event;dashed=1;strokeWidth=2;fontSize=10;" vertex="1" parent="1">
          <mxGeometry x="33" y="244" width="120" height="20" as="geometry" />
        </mxCell>
        <mxCell id="5IULGxTD0l-tf5MQh9gl-21" value="" style="endArrow=classic;html=1;fontSize=18;exitX=0.75;exitY=0;exitDx=0;exitDy=0;entryX=0.004;entryY=0.567;entryDx=0;entryDy=0;entryPerimeter=0;" edge="1" parent="1" source="5IULGxTD0l-tf5MQh9gl-2" target="5IULGxTD0l-tf5MQh9gl-5">
          <mxGeometry width="50" height="50" relative="1" as="geometry">
            <mxPoint x="225" y="220" as="sourcePoint" />
            <mxPoint x="276" y="161" as="targetPoint" />
            <Array as="points">
              <mxPoint x="243" y="170" />
            </Array>
          </mxGeometry>
        </mxCell>
        <mxCell id="5IULGxTD0l-tf5MQh9gl-23" value="RemoveProduct" style="html=1;outlineConnect=0;whiteSpace=wrap;fillColor=#99ffff;shape=mxgraph.archimate3.event;dashed=1;strokeWidth=2;fontSize=10;" vertex="1" parent="1">
          <mxGeometry x="320" y="200" width="120" height="20" as="geometry" />
        </mxCell>
        <mxCell id="5IULGxTD0l-tf5MQh9gl-24" value="ChangeCurrency" style="html=1;outlineConnect=0;whiteSpace=wrap;fillColor=#99ffff;shape=mxgraph.archimate3.event;dashed=1;strokeWidth=2;fontSize=10;" vertex="1" parent="1">
          <mxGeometry x="33" y="132" width="120" height="20" as="geometry" />
        </mxCell>
        <mxCell id="5IULGxTD0l-tf5MQh9gl-25" value="ChangeContractTerm" style="html=1;outlineConnect=0;whiteSpace=wrap;fillColor=#99ffff;shape=mxgraph.archimate3.event;dashed=1;strokeWidth=2;fontSize=10;" vertex="1" parent="1">
          <mxGeometry x="155.5" y="380" width="120" height="20" as="geometry" />
        </mxCell>
        <mxCell id="5IULGxTD0l-tf5MQh9gl-26" value="UpdateCustomeAddress" style="html=1;outlineConnect=0;whiteSpace=wrap;fillColor=#99ffff;shape=mxgraph.archimate3.event;dashed=1;strokeWidth=2;fontSize=10;" vertex="1" parent="1">
          <mxGeometry x="230" y="300" width="120" height="20" as="geometry" />
        </mxCell>
        <mxCell id="5IULGxTD0l-tf5MQh9gl-27" value="AddProduct" style="html=1;outlineConnect=0;whiteSpace=wrap;fillColor=#99ffff;shape=mxgraph.archimate3.event;dashed=1;strokeWidth=2;fontSize=10;" vertex="1" parent="1">
          <mxGeometry x="297.75" y="120" width="120" height="20" as="geometry" />
        </mxCell>
      </root>
    </mxGraphModel>
  </diagram>
</mxfile>
